<svg xmlns="http://www.w3.org/2000/svg" width="34.875" height="34.875" viewBox="0 0 34.875 34.875">
  <path id="icon7" d="M21.938,18H27.5a1.107,1.107,0,0,0,1.125-1.181,11.223,11.223,0,0,0-4.184-7.58,1.14,1.14,0,0,0-1.687.267l-2.932,4.7A4.472,4.472,0,0,1,21.938,18Zm-6.877,3.8-2.939,4.7a1.109,1.109,0,0,0,.408,1.582,10.976,10.976,0,0,0,9.823,0,1.115,1.115,0,0,0,.408-1.582l-2.939-4.7a4.417,4.417,0,0,1-4.76,0ZM7.376,18h5.562a4.484,4.484,0,0,1,2.123-3.8L12.129,9.5a1.14,1.14,0,0,0-1.687-.267,11.2,11.2,0,0,0-4.184,7.58A1.1,1.1,0,0,0,7.376,18ZM17.438,35.438A17.438,17.438,0,1,0,0,18,17.434,17.434,0,0,0,17.438,35.438Zm0-30.375A12.938,12.938,0,1,1,4.5,18,12.948,12.948,0,0,1,17.438,5.063Zm0,15.188A2.25,2.25,0,1,0,15.188,18,2.248,2.248,0,0,0,17.438,20.25Z" transform="translate(0 -0.563)"/>
</svg>
