<svg xmlns="http://www.w3.org/2000/svg" width="44.999" height="22.5" viewBox="0 0 44.999 22.5">
  <path id="icon9" d="M44.283,11.272,29.25,15.75,25.7,13.975a4.5,4.5,0,0,0-2.012-.475h-4V10.125h3.938A1.125,1.125,0,0,0,24.75,9V7.875A1.125,1.125,0,0,0,23.625,6.75H12.375A1.125,1.125,0,0,0,11.25,7.875V9a1.125,1.125,0,0,0,1.125,1.125h3.938V13.5H12.375L2.652,11.732A2.245,2.245,0,0,0,0,13.946v6.676a2.25,2.25,0,0,0,1.848,2.213l4.9.892V27A2.25,2.25,0,0,0,9,29.25H28.31a2.248,2.248,0,0,0,1.6-.669l14.925-15.1a.563.563,0,0,0,.165-.4V11.813A.562.562,0,0,0,44.283,11.272ZM6.75,20.3l-3.375-.614v-4.39l3.375.614V20.3ZM38.625,26.25a3,3,0,1,0,6,0c0-1.657-3-6-3-6s-3,4.343-3,6Z" transform="translate(0 -6.75)"/>
</svg>
